 http://www.imdb.com/title/tt1622979/
A cam with English audio popped up for Final Destination 5. The video source is fairly good and the audio is not bad either for a first cam. Check the sample to review it yourself. Enjoy.(the video sample does have some issues with the audio, but the release itself is fine, fully in sync!)
*UPDATE*: Final Destination 5 2011 CAM XViD DTRG : as expected a p2p group would improve the video of this source. DTRG releases an improved cam: the video has been cropped( no more black bars) and sharpened. The NFO has all the details. NFO – Video Sample – FiLESERVE – WUPLOAD (split) |  FiLESONiC (single)
Plot: In Final Destination 5, Death is just as omnipresent as ever, and is unleashed after one man’s premonition saves a group of coworkers from a terrifying suspension bridge collapse. But this group of unsuspecting souls was never supposed to survive, and, in a terrifying race against time, the ill-fated group frantically tries to 

Complete name                    : Final Destination 5 - Cam Rip - 2011
Format                           : MPEG-4
Format profile                   : Base Media
Codec ID                         : isom
File size                        : 1.13 GiB
Duration                         : 1h 27mn
Overall bit rate                 : 1 861 Kbps
 
Video
ID                               : 1
Format                           : MPEG-4 Visual
Format profile                   : Simple@L3
Format settings, BVOP            : No
Format settings, QPel            : No
Format settings, GMC             : No warppoints
Format settings, Matrix          : Default (H.263)
Codec ID                         : 20
Duration                         : 1h 27mn
Bit rate                         : 1 792 Kbps
Width                            : 720 pixels
Height                           : 480 pixels
Display aspect ratio             : 4:3
Original display aspect ratio    : 3:2
Frame rate mode                  : Constant
Frame rate                       : 29.970 fps
Standard                         : NTSC
Color space                      : YUV
Chroma subsampling               : 4:2:0
Bit depth                        : 8 bits
Scan type                        : Progressive
Compression mode                 : Lossy
Bits/(Pixel*Frame)               : 0.173
Stream size                      : 1.09 GiB (96%)
Material_Duration                : 5224786
Material_StreamSize              : 1170404687
Material_FrameCount              : 156587
 
Audio
ID                               : 2
Format                           : AAC
Format/Info                      : Advanced Audio Codec
Format profile                   : LC
Codec ID                         : 40
Duration                         : 1h 27mn
Bit rate mode                    : Variable
Bit rate                         : 64.0 Kbps
Channel(s)                       : 2 channels
Channel positions                : Front: L R
Sampling rate                    : 44.1 KHz
Compression mode                 : Lossy
Stream size                      : 39.9 MiB (3%)
Material_Duration                : 5224745
Material_StreamSize              : 41795687discover a way to escape Death’s sinister agenda.